<svg width="411" height="419" viewBox="0 0 411 419" fill="none" xmlns="http://www.w3.org/2000/svg">
<path d="M376.694 126.478L298.787 196.146L284.753 180.498L362.659 110.83L376.694 126.478ZM340.617 91.055L280.64 176.622L263.667 164.546L323.509 78.744L340.617 91.055ZM294.606 63.8672L258.419 161.951L238.95 154.753L275.138 56.6693L294.606 63.8672ZM224.841 46.9566L245.597 49.3484L233.639 153.131L212.882 150.74L224.841 46.9566ZM402.386 166.647L311.913 218.881L301.494 200.834L391.966 148.6L402.386 166.647Z" fill="#1389FF"/>
<path d="M266.628 411.748L235.861 311.866L255.94 305.649L286.707 405.531L266.628 411.748ZM313.881 393.761L261.179 303.53L279.241 293.152L332.211 383.358L313.881 393.761ZM357.799 363.309L283.79 289.467L298.461 274.783L372.469 348.625L357.799 363.309ZM402.299 306.98L391.458 324.841L302.152 270.634L312.994 252.773L402.299 306.98ZM219.4 418.317L209.722 314.298L230.471 312.368L240.15 416.387L219.4 418.317Z" fill="#1389FF"/>
<path d="M69.7926 165.238L170.391 193.576L164.722 213.816L64.1231 185.479L69.7926 165.238ZM59.2698 214.691L163.659 219.367L162.58 240.17L58.0656 235.734L59.2698 214.691ZM61.0273 268.106L163.208 245.991L167.585 266.281L65.4043 288.396L61.0273 268.106ZM84.2068 336.046L75.0834 317.249L169.068 271.632L178.191 290.429L84.2068 336.046ZM89.8943 122L182.528 170.297L172.894 188.776L80.2599 140.479L89.8943 122Z" fill="#1389FF"/>
<circle cx="45" cy="45" r="45" transform="matrix(0 1 1 0 187.932 188)" fill="white"/>
</svg>
