<svg width="975" height="85" viewBox="0 0 975 85" fill="none" xmlns="http://www.w3.org/2000/svg">
<path d="M33.7002 84.7454C28.4935 84.7454 23.6535 83.7921 19.1802 81.8854C14.7802 79.9787 10.9669 77.3387 7.7402 73.9654C4.58687 70.5187 2.27687 66.5221 0.810203 61.9754L13.2402 56.5854C15.2202 61.2787 18.0802 64.9821 21.8202 67.6954C25.5602 70.3354 29.7769 71.6554 34.4702 71.6554C37.1102 71.6554 39.3835 71.2521 41.2902 70.4454C43.2702 69.5654 44.7735 68.3921 45.8002 66.9254C46.9002 65.4587 47.4502 63.6987 47.4502 61.6454C47.4502 59.2254 46.7169 57.2454 45.2502 55.7054C43.8569 54.0921 41.7302 52.8454 38.8702 51.9654L23.1402 46.9054C16.7602 44.9254 11.9569 41.9554 8.7302 37.9954C5.50354 34.0354 3.8902 29.3787 3.8902 24.0254C3.8902 19.3321 5.02687 15.1887 7.3002 11.5954C9.64687 8.00208 12.8735 5.21541 16.9802 3.23541C21.1602 1.18208 25.9269 0.155412 31.2802 0.155412C36.1935 0.155412 40.7035 1.03541 44.8102 2.79541C48.9169 4.48208 52.4369 6.86541 55.3702 9.94541C58.3769 12.9521 60.6135 16.5087 62.0802 20.6154L49.7602 26.1154C48.1469 22.0087 45.7269 18.8554 42.5002 16.6554C39.2735 14.3821 35.5335 13.2454 31.2802 13.2454C28.7869 13.2454 26.5869 13.6854 24.6802 14.5654C22.7735 15.3721 21.2702 16.5454 20.1702 18.0854C19.1435 19.5521 18.6302 21.3121 18.6302 23.3654C18.6302 25.6387 19.3635 27.6554 20.8302 29.4154C22.2969 31.1021 24.5335 32.4221 27.5402 33.3754L42.6102 38.1054C49.1369 40.2321 54.0135 43.1654 57.2402 46.9054C60.5402 50.6454 62.1902 55.2654 62.1902 60.7654C62.1902 65.4587 60.9802 69.6021 58.5602 73.1954C56.1402 76.7887 52.8035 79.6121 48.5502 81.6654C44.2969 83.7187 39.3469 84.7454 33.7002 84.7454ZM98.1309 84.0854C91.3842 84.0854 86.1409 82.2521 82.4009 78.5854C78.7342 74.8454 76.9009 69.6021 76.9009 62.8554V36.4554H66.5609V23.5854H67.6609C70.5942 23.5854 72.8676 22.8154 74.4809 21.2754C76.0942 19.7354 76.9009 17.4987 76.9009 14.5654V9.94541H91.3109V23.5854H105.061V36.4554H91.3109V62.0854C91.3109 64.0654 91.6409 65.7521 92.3009 67.1454C93.0342 68.5387 94.1342 69.6021 95.6009 70.3354C97.1409 71.0687 99.0842 71.4354 101.431 71.4354C101.944 71.4354 102.531 71.3987 103.191 71.3254C103.924 71.2521 104.621 71.1787 105.281 71.1054V83.4254C104.254 83.5721 103.081 83.7187 101.761 83.8654C100.441 84.0121 99.2309 84.0854 98.1309 84.0854ZM130.626 84.7454C126.446 84.7454 122.816 84.0487 119.736 82.6554C116.656 81.2621 114.272 79.2821 112.586 76.7154C110.899 74.0754 110.056 71.0321 110.056 67.5854C110.056 64.2854 110.789 61.3521 112.256 58.7854C113.722 56.1454 115.996 53.9454 119.076 52.1854C122.156 50.4254 126.042 49.1787 130.736 48.4454L150.316 45.2554V56.2554L133.486 59.1154C130.626 59.6287 128.499 60.5454 127.106 61.8654C125.712 63.1854 125.016 64.9087 125.016 67.0354C125.016 69.0887 125.786 70.7387 127.326 71.9854C128.939 73.1587 130.919 73.7454 133.266 73.7454C136.272 73.7454 138.912 73.1221 141.186 71.8754C143.532 70.5554 145.329 68.7587 146.576 66.4854C147.896 64.2121 148.556 61.7187 148.556 59.0054V43.6054C148.556 41.0387 147.529 38.9121 145.476 37.2254C143.496 35.4654 140.856 34.5854 137.556 34.5854C134.476 34.5854 131.726 35.4287 129.306 37.1154C126.959 38.7287 125.236 40.8921 124.136 43.6054L112.366 37.8854C113.539 34.7321 115.372 32.0187 117.866 29.7454C120.432 27.3987 123.439 25.5654 126.886 24.2454C130.332 22.9254 134.072 22.2654 138.106 22.2654C143.019 22.2654 147.346 23.1821 151.086 25.0154C154.826 26.7754 157.722 29.2687 159.776 32.4954C161.902 35.6487 162.966 39.3521 162.966 43.6054V83.4254H149.326V73.1954L152.406 72.9754C150.866 75.5421 149.032 77.7054 146.906 79.4654C144.779 81.1521 142.359 82.4721 139.646 83.4254C136.932 84.3054 133.926 84.7454 130.626 84.7454ZM201.504 84.7454C195.564 84.7454 190.211 83.3887 185.444 80.6754C180.751 77.8887 177.047 74.1487 174.334 69.4554C171.621 64.6887 170.264 59.3354 170.264 53.3954C170.264 47.4554 171.621 42.1387 174.334 37.4454C177.047 32.7521 180.751 29.0487 185.444 26.3354C190.211 23.6221 195.564 22.2654 201.504 22.2654C205.757 22.2654 209.717 23.0354 213.384 24.5754C217.051 26.0421 220.204 28.0954 222.844 30.7354C225.557 33.3021 227.501 36.3821 228.674 39.9754L216.024 45.4754C214.924 42.4687 213.054 40.0487 210.414 38.2154C207.847 36.3821 204.877 35.4654 201.504 35.4654C198.351 35.4654 195.527 36.2354 193.034 37.7754C190.614 39.3154 188.707 41.4421 187.314 44.1554C185.921 46.8687 185.224 49.9854 185.224 53.5054C185.224 57.0254 185.921 60.1421 187.314 62.8554C188.707 65.5687 190.614 67.6954 193.034 69.2354C195.527 70.7754 198.351 71.5454 201.504 71.5454C204.951 71.5454 207.957 70.6287 210.524 68.7954C213.091 66.9621 214.924 64.5054 216.024 61.4254L228.674 67.1454C227.501 70.5187 225.594 73.5621 222.954 76.2754C220.314 78.9154 217.161 81.0054 213.494 82.5454C209.827 84.0121 205.831 84.7454 201.504 84.7454ZM236.008 83.4254V0.155412H250.418V54.7154L244.918 53.0654L273.078 23.5854H291.008L268.898 47.6754L291.448 83.4254H274.948L255.368 52.4054L263.948 50.6454L245.908 70.0054L250.418 61.2054V83.4254H236.008ZM807.44 83.4254V72.0954L829.66 48.8854C834.06 44.2654 837.433 40.5987 839.78 37.8854C842.2 35.0987 843.887 32.7154 844.84 30.7354C845.793 28.7554 846.27 26.7387 846.27 24.6854C846.27 21.2387 845.17 18.5254 842.97 16.5454C840.843 14.5654 838.093 13.5754 834.72 13.5754C831.2 13.5754 828.157 14.6021 825.59 16.6554C823.023 18.6354 821.153 21.5687 819.98 25.4554L806.89 21.3854C807.77 17.0587 809.567 13.3187 812.28 10.1654C814.993 6.93875 818.293 4.48208 822.18 2.79541C826.14 1.03541 830.32 0.155412 834.72 0.155412C840 0.155412 844.62 1.10875 848.58 3.01541C852.613 4.92208 855.73 7.59874 857.93 11.0454C860.203 14.4921 861.34 18.5254 861.34 23.1454C861.34 26.0787 860.79 28.9754 859.69 31.8354C858.59 34.6954 856.94 37.6287 854.74 40.6354C852.54 43.5687 849.68 46.8687 846.16 50.5354L826.91 70.7754H862.44V83.4254H807.44ZM877.945 83.4254V68.0254H892.465V83.4254H877.945ZM941.327 84.7454C934.8 84.7454 929.08 82.9854 924.167 79.4654C919.254 75.9454 915.404 70.9954 912.617 64.6154C909.904 58.2354 908.547 50.8287 908.547 42.3954C908.547 33.8887 909.904 26.4821 912.617 20.1754C915.33 13.8687 919.144 8.95541 924.057 5.43541C928.97 1.91541 934.69 0.155412 941.217 0.155412C947.89 0.155412 953.647 1.91541 958.487 5.43541C963.4 8.95541 967.25 13.9054 970.037 20.2854C972.824 26.5921 974.217 33.9621 974.217 42.3954C974.217 50.8287 972.824 58.2354 970.037 64.6154C967.324 70.9221 963.51 75.8721 958.597 79.4654C953.684 82.9854 947.927 84.7454 941.327 84.7454ZM941.437 71.1054C945.177 71.1054 948.367 69.9687 951.007 67.6954C953.647 65.3487 955.664 62.0487 957.057 57.7954C958.524 53.4687 959.257 48.3354 959.257 42.3954C959.257 36.4554 958.524 31.3587 957.057 27.1054C955.664 22.7787 953.61 19.4787 950.897 17.2054C948.257 14.9321 945.03 13.7954 941.217 13.7954C937.55 13.7954 934.397 14.9321 931.757 17.2054C929.117 19.4787 927.064 22.7787 925.597 27.1054C924.204 31.3587 923.507 36.4554 923.507 42.3954C923.507 48.2621 924.204 53.3587 925.597 57.6854C927.064 61.9387 929.117 65.2387 931.757 67.5854C934.47 69.9321 937.697 71.1054 941.437 71.1054Z" fill="white"/>
<path d="M353.425 84.7454C347.412 84.7454 341.802 83.6821 336.595 81.5554C331.388 79.4287 326.842 76.4587 322.955 72.6454C319.068 68.8321 316.025 64.3587 313.825 59.2254C311.698 54.0187 310.635 48.4087 310.635 42.3954C310.635 36.3087 311.698 30.6987 313.825 25.5654C315.952 20.4321 318.958 15.9587 322.845 12.1454C326.732 8.33208 331.278 5.39874 336.485 3.34541C341.692 1.21874 347.338 0.155412 353.425 0.155412C359.512 0.155412 365.158 1.21874 370.365 3.34541C375.572 5.47208 380.118 8.44208 384.005 12.2554C387.892 15.9954 390.898 20.4321 393.025 25.5654C395.225 30.6987 396.325 36.3087 396.325 42.3954C396.325 48.4087 395.225 54.0187 393.025 59.2254C390.825 64.3587 387.782 68.8321 383.895 72.6454C380.008 76.4587 375.462 79.4287 370.255 81.5554C365.122 83.6821 359.512 84.7454 353.425 84.7454ZM353.425 71.1054C357.458 71.1054 361.162 70.4087 364.535 69.0154C367.908 67.5487 370.842 65.5321 373.335 62.9654C375.902 60.3987 377.845 57.3554 379.165 53.8354C380.558 50.3154 381.255 46.5021 381.255 42.3954C381.255 38.2887 380.558 34.5121 379.165 31.0654C377.845 27.5454 375.902 24.5021 373.335 21.9354C370.842 19.2954 367.908 17.2787 364.535 15.8854C361.162 14.4921 357.458 13.7954 353.425 13.7954C349.465 13.7954 345.798 14.4921 342.425 15.8854C339.052 17.2787 336.082 19.2954 333.515 21.9354C331.022 24.5021 329.078 27.5454 327.685 31.0654C326.292 34.5121 325.595 38.2887 325.595 42.3954C325.595 46.5021 326.292 50.3154 327.685 53.8354C329.078 57.3554 331.022 60.3987 333.515 62.9654C336.082 65.5321 339.052 67.5487 342.425 69.0154C345.798 70.4087 349.465 71.1054 353.425 71.1054ZM422.857 83.4254L399.317 23.5854H415.047L432.097 70.6654H426.267L443.427 23.5854H459.157L435.617 83.4254H422.857ZM490.828 84.7454C484.668 84.7454 479.278 83.3521 474.658 80.5654C470.038 77.7787 466.444 74.0021 463.878 69.2354C461.311 64.4687 460.028 59.1887 460.028 53.3954C460.028 47.3821 461.311 42.0654 463.878 37.4454C466.518 32.7521 470.074 29.0487 474.548 26.3354C479.094 23.6221 484.154 22.2654 489.728 22.2654C494.421 22.2654 498.528 23.0354 502.048 24.5754C505.641 26.1154 508.684 28.2421 511.178 30.9554C513.671 33.6687 515.578 36.7854 516.898 40.3054C518.218 43.7521 518.878 47.4921 518.878 51.5254C518.878 52.5521 518.804 53.6154 518.658 54.7154C518.584 55.8154 518.401 56.7687 518.108 57.5754H471.908V46.5754L509.968 46.5754L503.148 51.7454C503.808 48.3721 503.624 45.3654 502.598 42.7254C501.644 40.0854 500.031 37.9954 497.758 36.4554C495.558 34.9154 492.881 34.1454 489.728 34.1454C486.721 34.1454 484.044 34.9154 481.698 36.4554C479.351 37.9221 477.554 40.1221 476.308 43.0554C475.134 45.9154 474.694 49.3987 474.988 53.5054C474.694 57.1721 475.171 60.4354 476.418 63.2954C477.738 66.0821 479.644 68.2454 482.138 69.7854C484.704 71.3254 487.638 72.0954 490.938 72.0954C494.238 72.0954 497.024 71.3987 499.298 70.0054C501.644 68.6121 503.478 66.7421 504.798 64.3954L516.458 70.1154C515.284 72.9754 513.451 75.5054 510.958 77.7054C508.464 79.9054 505.494 81.6287 502.048 82.8754C498.674 84.1221 494.934 84.7454 490.828 84.7454ZM526.201 83.4254V23.5854H539.731V36.8954L538.631 34.9154C540.025 30.4421 542.188 27.3254 545.121 25.5654C548.128 23.8054 551.721 22.9254 555.901 22.9254H559.421V35.6854H554.251C550.145 35.6854 546.845 36.9687 544.351 39.5354C541.858 42.0287 540.611 45.5487 540.611 50.0954V83.4254H526.201ZM570.674 83.4254V36.4554H560.114V23.5854H570.674V21.6054C570.674 17.0587 571.591 13.2087 573.424 10.0554C575.331 6.82874 577.971 4.37208 581.344 2.68541C584.717 0.998745 588.714 0.155412 593.334 0.155412C594.214 0.155412 595.167 0.228744 596.194 0.375409C597.294 0.448746 598.211 0.558747 598.944 0.705411V13.1354C598.211 12.9887 597.514 12.9154 596.854 12.9154C596.267 12.8421 595.717 12.8054 595.204 12.8054C591.977 12.8054 589.484 13.5387 587.724 15.0054C585.964 16.3987 585.084 18.5987 585.084 21.6054V23.5854H611.264V36.4554H585.084V83.4254H570.674ZM608.294 83.4254V0.155412H622.814V83.4254H608.294ZM661.806 84.7454C655.94 84.7454 650.586 83.3887 645.746 80.6754C640.98 77.9621 637.166 74.2587 634.306 69.5654C631.52 64.8721 630.126 59.5187 630.126 53.5054C630.126 47.4921 631.52 42.1387 634.306 37.4454C637.166 32.7521 640.98 29.0487 645.746 26.3354C650.513 23.6221 655.866 22.2654 661.806 22.2654C667.673 22.2654 672.99 23.6221 677.756 26.3354C682.523 29.0487 686.3 32.7521 689.086 37.4454C691.946 42.0654 693.376 47.4187 693.376 53.5054C693.376 59.5187 691.946 64.8721 689.086 69.5654C686.226 74.2587 682.413 77.9621 677.646 80.6754C672.88 83.3887 667.6 84.7454 661.806 84.7454ZM661.806 71.5454C665.033 71.5454 667.856 70.7754 670.276 69.2354C672.77 67.6954 674.713 65.5687 676.106 62.8554C677.573 60.0687 678.306 56.9521 678.306 53.5054C678.306 49.9854 677.573 46.9054 676.106 44.2654C674.713 41.5521 672.77 39.4254 670.276 37.8854C667.856 36.2721 665.033 35.4654 661.806 35.4654C658.506 35.4654 655.61 36.2721 653.116 37.8854C650.623 39.4254 648.643 41.5521 647.176 44.2654C645.783 46.9054 645.086 49.9854 645.086 53.5054C645.086 56.9521 645.783 60.0687 647.176 62.8554C648.643 65.5687 650.623 67.6954 653.116 69.2354C655.61 70.7754 658.506 71.5454 661.806 71.5454ZM714.7 83.4254L694.13 23.5854H709.31L724.38 69.0154L719.1 68.9054L735.16 23.5854H747.92L763.87 68.9054L758.59 69.0154L773.66 23.5854H788.84L768.27 83.4254H755.4L739.12 36.0154H743.96L727.46 83.4254H714.7Z" fill="#1389FF"/>
</svg>
